<?xml version="1.0" encoding="UTF-8" standalone="no"?>
<svg
   xmlns:dc="http://purl.org/dc/elements/1.1/"
   xmlns:cc="http://creativecommons.org/ns#"
   xmlns:rdf="http://www.w3.org/1999/02/22-rdf-syntax-ns#"
   xmlns:svg="http://www.w3.org/2000/svg"
   xmlns="http://www.w3.org/2000/svg"
   xmlns:sodipodi="http://sodipodi.sourceforge.net/DTD/sodipodi-0.dtd"
   xmlns:inkscape="http://www.inkscape.org/namespaces/inkscape"
   width="160.2"
   height="74.233482"
   viewBox="0 0 42.386249 19.640942"
   version="1.1"
   id="svg89"
   inkscape:version="1.0beta2 (2b71d25, 2019-12-03)"
   sodipodi:docname="drawing-3.svg">
  <defs
     id="defs83" />
  <sodipodi:namedview
     id="base"
     pagecolor="#ffffff"
     bordercolor="#666666"
     borderopacity="1.0"
     inkscape:pageopacity="0.0"
     inkscape:pageshadow="2"
     inkscape:zoom="1.1359065"
     inkscape:cx="-81.513851"
     inkscape:cy="151.84385"
     inkscape:document-units="mm"
     inkscape:current-layer="layer1"
     inkscape:document-rotation="0"
     showgrid="false"
     lock-margins="false"
     fit-margin-top="0.1"
     fit-margin-left="0.1"
     fit-margin-right="0.1"
     fit-margin-bottom="0.1"
     inkscape:window-width="1440"
     inkscape:window-height="775"
     inkscape:window-x="0"
     inkscape:window-y="23"
     inkscape:window-maximized="0"
     units="px" />
  <metadata
     id="metadata86">
    <rdf:RDF>
      <cc:Work
         rdf:about="">
        <dc:format>image/svg+xml</dc:format>
        <dc:type
           rdf:resource="http://purl.org/dc/dcmitype/StillImage" />
        <dc:title></dc:title>
      </cc:Work>
    </rdf:RDF>
  </metadata>
  <g
     inkscape:label="Layer 1"
     inkscape:groupmode="layer"
     id="layer1"
     transform="translate(-80.130806,-43.224838)">
    <g
       transform="matrix(0.33826447,0,0,0.33826447,45.574652,21.608246)"
       id="g235">
      <path
         style="fill:#525453;fill-opacity:1;stroke-width:0.719943"
         d="m 387.8415,426.84952 v -33.83733 h 235.7814 235.7814 v 33.83733 33.83733 H 623.6229 387.8415 Z"
         id="path226"
         inkscape:connector-curvature="0"
         transform="scale(0.26458333)" />
      <path
         style="fill:#525453;fill-opacity:1;stroke-width:0.719943"
         d="m 387.12156,350.65457 v -33.95636 h 235.7814 235.7814 v 33.47736 33.47736 l -146.68843,3.2e-4 c -80.67863,1.8e-4 -186.78026,0.21572 -235.7814,0.479 l -89.09297,0.47867 z"
         id="path228"
         inkscape:connector-curvature="0"
         transform="scale(0.26458333)" />
      <path
         style="fill:#525453;fill-opacity:1;stroke-width:0.719943"
         d="m 386.40162,275.66145 v -33.83733 h 235.42142 235.42143 v 33.83733 33.83733 H 621.82304 386.40162 Z"
         id="path230"
         inkscape:connector-curvature="0"
         transform="scale(0.26458333)" />
    </g>
    <g
       style="font-style:normal;font-weight:normal;font-size:5.36995000000000022px;line-height:1.25;font-family:sans-serif;fill:#ffffff;fill-opacity:1;stroke:none;stroke-width:0.089499"
       id="text12"
       aria-label="Centre for">
      <path
         id="path115"
         style="letter-spacing:0.17899799999999999px;stroke-width:0.089499;fill:#ffffff"
         d="m 84.025233,45.426337 q -0.161098,-0.289977 -0.386636,-0.451076 -0.225538,-0.161098 -0.569215,-0.161098 -0.504775,0 -0.810862,0.359787 -0.306087,0.354416 -0.306087,1.06325 0,0.703463 0.306087,1.06325 0.306087,0.354416 0.810862,0.354416 0.306087,0 0.526255,-0.134248 0.220168,-0.134249 0.408117,-0.434966 l 0.408116,0.295347 q -0.467186,0.778643 -1.353228,0.778643 -0.354416,0 -0.660503,-0.123509 -0.300718,-0.123509 -0.520886,-0.365157 -0.220168,-0.241648 -0.349046,-0.601434 -0.123509,-0.359787 -0.123509,-0.837712 0,-0.472556 0.123509,-0.832343 0.128878,-0.359786 0.349046,-0.601434 0.220168,-0.247018 0.526255,-0.370526 0.306088,-0.123509 0.665874,-0.123509 0.510146,0 0.843082,0.230908 0.332937,0.230907 0.510146,0.590694 z" />
      <path
         id="path117"
         style="letter-spacing:0.17899799999999999px;stroke-width:0.089499;fill:#ffffff"
         d="m 85.490502,46.844004 q 0.02148,0.220168 0.09129,0.381266 0.06981,0.161099 0.171839,0.268498 0.107399,0.102029 0.236278,0.155728 0.134248,0.04833 0.273867,0.04833 0.209428,0 0.365157,-0.09666 0.161098,-0.09666 0.257757,-0.236278 l 0.338307,0.295347 q -0.05907,0.08055 -0.150359,0.171839 -0.08592,0.08592 -0.209428,0.161098 -0.118139,0.06981 -0.273867,0.118139 -0.155729,0.04833 -0.349047,0.04833 -0.252387,0 -0.477925,-0.09129 -0.225538,-0.09666 -0.392007,-0.284608 -0.166468,-0.187948 -0.263127,-0.467185 -0.09666,-0.284608 -0.09666,-0.660504 0,-0.354417 0.08592,-0.628284 0.09129,-0.279238 0.247018,-0.467186 0.161098,-0.187948 0.381266,-0.284607 0.220168,-0.09666 0.483296,-0.09666 0.263127,0 0.483295,0.09666 0.220168,0.09666 0.381266,0.284607 0.161099,0.187948 0.247018,0.467186 0.09129,0.273867 0.09129,0.628284 0,0.0537 -0.0054,0.102029 0,0.04296 -0.0054,0.08592 z m 0.724943,-1.202869 q -0.295347,0 -0.488665,0.214798 -0.193318,0.209428 -0.236278,0.606805 h 1.444517 q -0.04296,-0.408117 -0.236278,-0.612175 -0.193318,-0.209428 -0.483296,-0.209428 z" />
      <path
         id="path119"
         style="letter-spacing:0.17899799999999999px;stroke-width:0.089499;fill:#ffffff"
         d="m 88.787008,45.249129 v 0.349047 q 0.322197,-0.418856 0.896781,-0.418856 0.214798,0 0.392007,0.06444 0.182578,0.05907 0.311457,0.193318 0.128879,0.134249 0.198688,0.349047 0.06981,0.209428 0.06981,0.504775 v 1.798933 h -0.510145 v -1.745233 q 0,-0.370527 -0.171838,-0.526255 -0.166469,-0.155729 -0.451076,-0.155729 -0.225538,0 -0.408116,0.107399 -0.182579,0.107399 -0.300718,0.392006 v 1.927812 h -0.510145 v -2.840703 z" />
      <path
         id="path121"
         style="letter-spacing:0.17899799999999999px;stroke-width:0.089499;fill:#ffffff"
         d="m 91.661385,45.249129 v -0.767903 l 0.510145,-0.166468 v 0.934371 h 0.724944 v 0.418856 H 92.17153 v 1.610985 q 0,0.343677 0.332937,0.343677 0.112769,0 0.209428,-0.03759 0.102029,-0.04296 0.198689,-0.134249 l -0.08592,0.467186 q -0.07518,0.09129 -0.225538,0.144989 -0.144988,0.0537 -0.300717,0.0537 -0.263127,0 -0.451076,-0.177208 -0.187948,-0.182579 -0.187948,-0.547735 v -1.723754 h -0.322197 v -0.418856 z" />
      <path
         id="path123"
         style="letter-spacing:0.17899799999999999px;stroke-width:0.089499;fill:#ffffff"
         d="m 95.212627,45.802234 q -0.07518,-0.07518 -0.177208,-0.107399 -0.102029,-0.03222 -0.230908,-0.03222 -0.220168,0 -0.397376,0.107399 -0.171838,0.102029 -0.295347,0.402746 v 1.917072 h -0.510146 v -2.840703 h 0.483296 v 0.343677 q 0.306087,-0.413486 0.816232,-0.413486 0.187949,0 0.306087,0.0537 0.118139,0.04833 0.193319,0.118139 z" />
      <path
         id="path125"
         style="letter-spacing:0.17899799999999999px;stroke-width:0.089499;fill:#ffffff"
         d="m 96.39052,46.844004 q 0.02148,0.220168 0.09129,0.381266 0.06981,0.161099 0.171839,0.268498 0.107399,0.102029 0.236277,0.155728 0.134249,0.04833 0.273868,0.04833 0.209428,0 0.365156,-0.09666 0.161099,-0.09666 0.257758,-0.236278 l 0.338307,0.295347 q -0.05907,0.08055 -0.150359,0.171839 -0.08592,0.08592 -0.209428,0.161098 -0.118139,0.06981 -0.273867,0.118139 -0.155729,0.04833 -0.349047,0.04833 -0.252388,0 -0.477926,-0.09129 -0.225537,-0.09666 -0.392006,-0.284608 -0.166468,-0.187948 -0.263127,-0.467185 -0.09666,-0.284608 -0.09666,-0.660504 0,-0.354417 0.08592,-0.628284 0.09129,-0.279238 0.247017,-0.467186 0.161099,-0.187948 0.381267,-0.284607 0.220168,-0.09666 0.483295,-0.09666 0.263128,0 0.483296,0.09666 0.220168,0.09666 0.381266,0.284607 0.161099,0.187948 0.247018,0.467186 0.09129,0.273867 0.09129,0.628284 0,0.0537 -0.0054,0.102029 0,0.04296 -0.0054,0.08592 z m 0.724943,-1.202869 q -0.295347,0 -0.488665,0.214798 -0.193318,0.209428 -0.236278,0.606805 h 1.444516 q -0.04296,-0.408117 -0.236277,-0.612175 -0.193319,-0.209428 -0.483296,-0.209428 z" />
      <path
         id="path127"
         style="letter-spacing:0.17899799999999999px;stroke-width:0.089499;fill:#ffffff"
         d="m 102.07872,44.551035 q -0.0376,-0.01074 -0.1074,-0.01611 -0.0698,-0.01074 -0.15036,-0.01074 -0.13425,0 -0.22553,0.06444 -0.0859,0.06444 -0.0859,0.247018 v 0.413486 h 0.55847 v 0.418856 h -0.55847 v 2.421847 h -0.51015 v -2.421847 h -0.3222 v -0.418856 h 0.3222 v -0.494036 q 0,-0.198688 0.0483,-0.322197 0.0537,-0.128878 0.14499,-0.204058 0.0913,-0.07518 0.2148,-0.102029 0.12888,-0.03222 0.27923,-0.03222 0.13962,0 0.23628,0.01074 0.0967,0.01074 0.15573,0.02685 z" />
      <path
         id="path129"
         style="letter-spacing:0.17899799999999999px;stroke-width:0.089499;fill:#ffffff"
         d="m 103.71533,45.17932 q 0.25775,0 0.47792,0.09666 0.22017,0.09666 0.38127,0.284607 0.1611,0.187948 0.24701,0.467186 0.0913,0.273867 0.0913,0.639024 0,0.365156 -0.0913,0.644394 -0.0859,0.279237 -0.24701,0.467185 -0.15573,0.187948 -0.3759,0.284608 -0.22017,0.09666 -0.48329,0.09666 -0.2685,0 -0.48867,-0.09666 -0.22017,-0.09666 -0.38127,-0.284608 -0.15573,-0.187948 -0.24701,-0.467185 -0.0859,-0.279238 -0.0859,-0.644394 0,-0.365157 0.0859,-0.639024 0.0913,-0.279238 0.25238,-0.467186 0.1611,-0.187948 0.38127,-0.284607 0.22017,-0.09666 0.4833,-0.09666 z m 0,0.472555 q -0.3222,0 -0.52089,0.257758 -0.19332,0.257757 -0.19332,0.762533 0,0.504775 0.19332,0.762532 0.19869,0.252388 0.52089,0.252388 0.31682,0 0.51551,-0.252388 0.19869,-0.257757 0.19869,-0.762532 0,-0.504776 -0.19869,-0.762533 -0.19869,-0.257758 -0.51551,-0.257758 z" />
      <path
         id="path131"
         style="letter-spacing:0.17899799999999999px;stroke-width:0.089499;fill:#ffffff"
         d="m 107.41458,45.802234 q -0.0752,-0.07518 -0.17721,-0.107399 -0.10203,-0.03222 -0.23091,-0.03222 -0.22017,0 -0.39738,0.107399 -0.17183,0.102029 -0.29534,0.402746 v 1.917072 h -0.51015 v -2.840703 h 0.4833 v 0.343677 q 0.30608,-0.413486 0.81623,-0.413486 0.18795,0 0.30609,0.0537 0.11814,0.04833 0.19331,0.118139 z" />
    </g>
    <g
       style="font-style:normal;font-weight:normal;font-size:3.57995px;line-height:1.25;font-family:sans-serif;fill:#ffffff;fill-opacity:1;stroke:none;stroke-width:0.089499"
       id="text20-7"
       aria-label="
Data Ethics">
      <path
         id="path134"
         style="fill:#ffffff;stroke-width:0.089499"
         d="m 82.622639,51.254257 q 0.397376,0 0.741053,0.144989 0.349047,0.139619 0.606804,0.392006 0.257758,0.247018 0.402746,0.585325 0.150359,0.338307 0.150359,0.730313 0,0.392006 -0.150359,0.730313 -0.144988,0.338307 -0.402746,0.590695 -0.257757,0.252387 -0.606804,0.397376 -0.343677,0.144989 -0.741053,0.144989 h -1.04714 v -3.716006 z m -0.311457,2.991062 h 0.316827 q 0.241648,0 0.451076,-0.08592 0.209428,-0.08592 0.365156,-0.236278 0.155729,-0.150358 0.247018,-0.354416 0.09129,-0.209428 0.09129,-0.456446 0,-0.252388 -0.09129,-0.461816 -0.09129,-0.209428 -0.247018,-0.354416 -0.155728,-0.150359 -0.365156,-0.230908 -0.209428,-0.08055 -0.451076,-0.08055 h -0.316827 z" />
      <path
         id="path136"
         style="letter-spacing:0.626493px;stroke-width:0.089499"
         d="m 87.171209,54.766205 q -0.300717,0.273867 -0.741053,0.273867 -0.187948,0 -0.375897,-0.05907 -0.182578,-0.0537 -0.327567,-0.177209 -0.144988,-0.123509 -0.236277,-0.316827 -0.08592,-0.198688 -0.08592,-0.472555 0,-0.247018 0.09666,-0.418857 0.102029,-0.177208 0.263128,-0.289977 0.166468,-0.112769 0.370527,-0.166468 0.209428,-0.0537 0.429596,-0.0537 0.177208,0 0.316827,0.04833 0.139618,0.04833 0.247017,0.134249 0,-0.306088 -0.102029,-0.456446 -0.09666,-0.150359 -0.338307,-0.150359 -0.247017,0 -0.434966,0.06981 -0.187948,0.06981 -0.311457,0.161098 l -0.300717,-0.579955 q 0.155729,-0.134248 0.418856,-0.225537 0.263128,-0.09129 0.622914,-0.09129 0.536995,0 0.832343,0.300718 0.295347,0.295347 0.295347,0.971961 v 1.702274 h -0.639024 z m -0.04296,-0.993441 q -0.07518,-0.05907 -0.230908,-0.09666 -0.155728,-0.04296 -0.311457,-0.04296 -0.241647,0 -0.370526,0.09129 -0.123509,0.08592 -0.123509,0.289978 0,0.198688 0.118139,0.289977 0.123509,0.08592 0.365156,0.08592 0.08055,0 0.166469,-0.01611 0.08592,-0.02148 0.161098,-0.0537 0.07518,-0.03222 0.134249,-0.06981 0.05907,-0.03759 0.09129,-0.07518 z" />
      <path
         id="path138"
         style="letter-spacing:0.626493px;stroke-width:0.089499"
         d="m 89.708649,54.975633 q -0.128879,0 -0.252388,-0.04296 -0.118139,-0.04833 -0.214798,-0.139619 -0.09129,-0.09666 -0.150359,-0.236278 -0.0537,-0.144988 -0.0537,-0.338306 V 52.661184 H 88.645399 V 52.06512 h 0.392006 v -0.735683 l 0.730313,-0.247018 v 0.982701 h 0.622914 v 0.596064 h -0.622914 v 1.390817 q 0,0.107399 0.05907,0.161099 0.05907,0.0537 0.155729,0.0537 0.220168,0 0.456446,-0.268497 l -0.150359,0.784012 q -0.08055,0.08592 -0.236278,0.139619 -0.150358,0.0537 -0.343676,0.0537 z" />
      <path
         id="path140"
         style="letter-spacing:0.626493px;stroke-width:0.089499"
         d="m 92.965578,54.766205 q -0.300717,0.273867 -0.741053,0.273867 -0.187948,0 -0.375897,-0.05907 -0.182578,-0.0537 -0.327566,-0.177209 -0.144989,-0.123509 -0.236278,-0.316827 -0.08592,-0.198688 -0.08592,-0.472555 0,-0.247018 0.09666,-0.418857 0.102029,-0.177208 0.263127,-0.289977 0.166469,-0.112769 0.370527,-0.166468 0.209428,-0.0537 0.429596,-0.0537 0.177208,0 0.316827,0.04833 0.139618,0.04833 0.247017,0.134249 0,-0.306088 -0.102029,-0.456446 -0.09666,-0.150359 -0.338306,-0.150359 -0.247018,0 -0.434966,0.06981 -0.187949,0.06981 -0.311457,0.161098 l -0.300718,-0.579955 q 0.155729,-0.134248 0.418856,-0.225537 0.263128,-0.09129 0.622915,-0.09129 0.536995,0 0.832342,0.300718 0.295347,0.295347 0.295347,0.971961 v 1.702274 h -0.639024 z m -0.04296,-0.993441 q -0.07518,-0.05907 -0.230907,-0.09666 -0.155729,-0.04296 -0.311457,-0.04296 -0.241648,0 -0.370527,0.09129 -0.123509,0.08592 -0.123509,0.289978 0,0.198688 0.118139,0.289977 0.123509,0.08592 0.365157,0.08592 0.08055,0 0.166468,-0.01611 0.08592,-0.02148 0.161099,-0.0537 0.07518,-0.03222 0.134248,-0.06981 0.05907,-0.03759 0.09129,-0.07518 z" />
      <path
         id="path142"
         style="letter-spacing:0.626493px;stroke-width:0.089499"
         d="m 96.500178,51.254257 h 2.15335 v 0.730314 h -1.423036 v 0.724943 h 0.880671 v 0.730313 h -0.880671 v 0.810862 h 1.460626 v 0.719574 h -2.19094 z" />
      <path
         id="path144"
         style="letter-spacing:0.626493px;stroke-width:0.089499"
         d="m 100.56671,54.975633 q -0.12888,0 -0.25239,-0.04296 -0.11813,-0.04833 -0.21479,-0.139619 -0.0913,-0.09666 -0.150362,-0.236278 -0.0537,-0.144988 -0.0537,-0.338306 V 52.661184 H 99.503462 V 52.06512 h 0.392007 v -0.735683 l 0.730311,-0.247018 v 0.982701 h 0.62292 v 0.596064 h -0.62292 v 1.390817 q 0,0.107399 0.0591,0.161099 0.0591,0.0537 0.15573,0.0537 0.22017,0 0.45645,-0.268497 l -0.15036,0.784012 q -0.0806,0.08592 -0.23628,0.139619 -0.15036,0.0537 -0.34368,0.0537 z" />
      <path
         id="path146"
         style="letter-spacing:0.626493px;stroke-width:0.089499"
         d="m 103.67865,53.235769 q 0,-0.510145 -0.38126,-0.510145 -0.28998,0 -0.45645,0.375896 v 1.868743 h -0.73031 v -3.662306 l 0.73031,-0.252388 v 1.208239 q 0.13962,-0.139619 0.29535,-0.204058 0.1611,-0.06444 0.38663,-0.06444 0.18258,0 0.34368,0.06981 0.1611,0.06981 0.27924,0.209428 0.11814,0.134249 0.18795,0.332937 0.0698,0.198688 0.0698,0.456445 v 1.906333 h -0.72495 z" />
      <path
         id="path148"
         style="letter-spacing:0.626493px;stroke-width:0.089499"
         d="m 106.04778,52.06512 v 2.905143 h -0.73569 V 52.06512 Z m -0.73569,-0.644394 q 0,-0.155729 0.10203,-0.268498 0.10203,-0.112769 0.26313,-0.112769 0.15036,0 0.25776,0.112769 0.11277,0.112769 0.11277,0.268498 0,0.150358 -0.11277,0.257757 -0.1074,0.102029 -0.25776,0.102029 -0.1611,0 -0.26313,-0.102029 -0.10203,-0.107399 -0.10203,-0.257757 z" />
      <path
         id="path150"
         style="letter-spacing:0.626493px;stroke-width:0.089499"
         d="m 108.26957,52.714884 q -0.24165,0 -0.39738,0.204058 -0.15573,0.198688 -0.15573,0.601434 0,0.402746 0.15573,0.601435 0.15573,0.198688 0.39738,0.198688 0.10739,0 0.23627,-0.07518 0.13425,-0.08055 0.24702,-0.230907 l 0.52626,0.467185 q -0.0644,0.09129 -0.1611,0.193318 -0.0967,0.09666 -0.22554,0.177209 -0.12888,0.08055 -0.30072,0.134248 -0.16647,0.0537 -0.37589,0.0537 -0.25239,0 -0.47793,-0.09666 -0.22017,-0.09666 -0.38664,-0.289977 -0.16646,-0.193319 -0.26312,-0.477926 -0.0967,-0.284607 -0.0967,-0.655134 0,-0.375896 0.0967,-0.660504 0.0967,-0.284607 0.27386,-0.477925 0.17721,-0.193318 0.41886,-0.289977 0.24702,-0.09666 0.53699,-0.09666 0.35442,0 0.60144,0.155729 0.25239,0.155729 0.39201,0.429596 l -0.55848,0.515515 q -0.0913,-0.209428 -0.20406,-0.295347 -0.1074,-0.08592 -0.27923,-0.08592 z" />
      <path
         id="path152"
         style="letter-spacing:0.626493px;stroke-width:0.089499"
         d="m 111.26186,51.979201 q 0.3383,0 0.57458,0.06981 0.23628,0.06981 0.44034,0.236278 l -0.25239,0.612174 q -0.0644,-0.07518 -0.17721,-0.123509 -0.1074,-0.0537 -0.22554,-0.08592 -0.11277,-0.03222 -0.22016,-0.04296 -0.1074,-0.01611 -0.16647,-0.01611 -0.1611,0 -0.24165,0.0537 -0.0752,0.0537 -0.0752,0.134249 0,0.02685 0.0322,0.05907 0.0376,0.03222 0.0859,0.06981 0.0537,0.03222 0.11814,0.06444 0.0644,0.02685 0.12888,0.04833 0.19331,0.07518 0.392,0.150359 0.20406,0.07518 0.36516,0.187948 0.1611,0.112769 0.26313,0.284608 0.1074,0.166468 0.1074,0.429596 0,0.273867 -0.10203,0.451075 -0.0967,0.177209 -0.25776,0.284608 -0.1611,0.102029 -0.36516,0.139618 -0.19869,0.04296 -0.39737,0.04296 -0.39201,0 -0.70347,-0.102029 -0.30608,-0.102029 -0.48329,-0.241648 l 0.26313,-0.601434 q 0.16646,0.112769 0.40811,0.198688 0.24702,0.08055 0.50478,0.08055 0.0698,0 0.14499,-0.0054 0.0752,-0.01074 0.13424,-0.03222 0.0591,-0.02148 0.0967,-0.05907 0.043,-0.04296 0.043,-0.102029 0,-0.112769 -0.12888,-0.182578 -0.1235,-0.07518 -0.28997,-0.144989 -0.17721,-0.07518 -0.37053,-0.144988 -0.19332,-0.06981 -0.34905,-0.171839 -0.15573,-0.107399 -0.25775,-0.263127 -0.10203,-0.161099 -0.10203,-0.413487 0,-0.268497 0.10203,-0.434965 0.10739,-0.171839 0.26312,-0.263128 0.1611,-0.09666 0.34905,-0.128879 0.18795,-0.03759 0.34905,-0.03759 z" />
    </g>
    <g
       style="font-style:normal;font-weight:normal;font-size:5.36995px;line-height:1.25;font-family:sans-serif;letter-spacing:0.447497px;fill:#ffffff;fill-opacity:1;stroke:none;stroke-width:0.089499"
       id="text30"
       aria-label="and Innovation">
      <path
         id="path155"
         style="font-style:normal;font-variant:normal;font-weight:bold;font-stretch:normal;font-family:Expressway;-inkscape-font-specification:Expressway;letter-spacing:0.447497px;word-spacing:0.089499px;fill:#ffffff;stroke-width:0.089499"
         d="m 83.321383,61.368898 q -0.300717,0.273867 -0.741053,0.273867 -0.187948,0 -0.375896,-0.05907 -0.182578,-0.0537 -0.327567,-0.177208 -0.144989,-0.123509 -0.236278,-0.316827 -0.08592,-0.198689 -0.08592,-0.472556 0,-0.247018 0.09666,-0.418856 0.102029,-0.177208 0.263128,-0.289977 0.166468,-0.112769 0.370526,-0.166469 0.209428,-0.0537 0.429596,-0.0537 0.177208,0 0.316827,0.04833 0.139619,0.04833 0.247018,0.134249 0,-0.306087 -0.102029,-0.456446 -0.09666,-0.150358 -0.338307,-0.150358 -0.247018,0 -0.434966,0.06981 -0.187948,0.06981 -0.311457,0.161099 l -0.300717,-0.579955 q 0.155728,-0.134249 0.418856,-0.225538 0.263127,-0.09129 0.622914,-0.09129 0.536995,0 0.832342,0.300717 0.295347,0.295347 0.295347,0.971961 v 1.702274 h -0.639024 z m -0.04296,-0.993441 q -0.07518,-0.05907 -0.230908,-0.09666 -0.155729,-0.04296 -0.311457,-0.04296 -0.241648,0 -0.370527,0.09129 -0.123508,0.08592 -0.123508,0.289977 0,0.198688 0.118138,0.289977 0.123509,0.08592 0.365157,0.08592 0.08055,0 0.166468,-0.01611 0.08592,-0.02148 0.161099,-0.0537 0.07518,-0.03222 0.134249,-0.06981 0.05907,-0.03759 0.09129,-0.07518 z" />
      <path
         id="path157"
         style="font-style:normal;font-variant:normal;font-weight:bold;font-stretch:normal;font-family:Expressway;-inkscape-font-specification:Expressway;letter-spacing:0.447497px;word-spacing:0.089499px;fill:#ffffff;stroke-width:0.089499"
         d="m 86.356441,59.838462 q 0,-0.273867 -0.102029,-0.397376 -0.102029,-0.123509 -0.295347,-0.123509 -0.263128,0 -0.440336,0.381267 v 1.874112 h -0.730313 v -2.905143 h 0.687354 v 0.198688 q 0.161098,-0.139618 0.343676,-0.204058 0.187949,-0.06444 0.386637,-0.06444 0.182578,0 0.338307,0.06981 0.161098,0.06981 0.279237,0.204058 0.123509,0.134249 0.193318,0.338307 0.06981,0.198688 0.06981,0.456446 v 1.906332 h -0.730313 z" />
      <path
         id="path159"
         style="font-style:normal;font-variant:normal;font-weight:bold;font-stretch:normal;font-family:Expressway;-inkscape-font-specification:Expressway;letter-spacing:0.447497px;word-spacing:0.089499px;fill:#ffffff;stroke-width:0.089499"
         d="m 90.219478,61.572956 h -0.633654 v -0.241648 q -0.06444,0.128879 -0.257758,0.220168 -0.193318,0.09129 -0.424226,0.09129 -0.220168,0 -0.413486,-0.09666 -0.193318,-0.102029 -0.338307,-0.295347 -0.139618,-0.193318 -0.220168,-0.477925 -0.08055,-0.284608 -0.08055,-0.649764 0,-0.375897 0.07518,-0.660504 0.08055,-0.284608 0.220168,-0.477926 0.144989,-0.193318 0.332937,-0.289977 0.193318,-0.09666 0.418856,-0.09666 0.241648,0 0.386637,0.07518 0.144988,0.07518 0.209428,0.187948 V 57.90528 l 0.724943,-0.247017 z m -1.143799,-2.282229 q -0.531625,0 -0.531625,0.826973 0,0.402746 0.128878,0.612174 0.134249,0.209428 0.381267,0.209428 0.182578,0 0.300717,-0.123509 0.118139,-0.128879 0.187948,-0.300717 v -0.826972 q -0.08592,-0.204058 -0.209428,-0.300717 -0.118139,-0.09666 -0.257757,-0.09666 z" />
      <path
         id="path161"
         style="font-style:normal;font-variant:normal;font-weight:bold;font-stretch:normal;font-family:Expressway;-inkscape-font-specification:Expressway;letter-spacing:0.447497px;word-spacing:0.089499px;fill:#ffffff;stroke-width:0.089499"
         d="m 93.29993,57.856951 h 0.730313 v 3.716005 H 93.29993 Z" />
      <path
         id="path163"
         style="font-style:normal;font-variant:normal;font-weight:bold;font-stretch:normal;font-family:Expressway;-inkscape-font-specification:Expressway;letter-spacing:0.447497px;word-spacing:0.089499px;fill:#ffffff;stroke-width:0.089499"
         d="m 96.427199,59.838462 q 0,-0.273867 -0.102029,-0.397376 -0.102029,-0.123509 -0.295347,-0.123509 -0.263128,0 -0.440336,0.381267 v 1.874112 h -0.730313 v -2.905143 h 0.687353 v 0.198688 q 0.161099,-0.139618 0.343677,-0.204058 0.187948,-0.06444 0.386637,-0.06444 0.182578,0 0.338306,0.06981 0.161099,0.06981 0.279238,0.204058 0.123509,0.134249 0.193318,0.338307 0.06981,0.198688 0.06981,0.456446 v 1.906332 h -0.730313 z" />
      <path
         id="path165"
         style="font-style:normal;font-variant:normal;font-weight:bold;font-stretch:normal;font-family:Expressway;-inkscape-font-specification:Expressway;letter-spacing:0.447497px;word-spacing:0.089499px;fill:#ffffff;stroke-width:0.089499"
         d="m 99.549183,59.838462 q 0,-0.273867 -0.102029,-0.397376 -0.102029,-0.123509 -0.295348,-0.123509 -0.263127,0 -0.440336,0.381267 v 1.874112 h -0.730313 v -2.905143 h 0.687354 v 0.198688 q 0.161098,-0.139618 0.343677,-0.204058 0.187948,-0.06444 0.386636,-0.06444 0.182578,0 0.338307,0.06981 0.161098,0.06981 0.279239,0.204058 0.12351,0.134249 0.19332,0.338307 0.0698,0.198688 0.0698,0.456446 v 1.906332 h -0.730317 z" />
      <path
         id="path167"
         style="font-style:normal;font-variant:normal;font-weight:bold;font-stretch:normal;font-family:Expressway;-inkscape-font-specification:Expressway;letter-spacing:0.447497px;word-spacing:0.089499px;fill:#ffffff;stroke-width:0.089499"
         d="m 102.30064,58.598004 q 0.27387,0 0.50478,0.09666 0.2309,0.09666 0.39737,0.289977 0.16647,0.193318 0.25776,0.477926 0.0967,0.284607 0.0967,0.660504 0,0.370526 -0.0967,0.655134 -0.0913,0.284607 -0.25776,0.477925 -0.16647,0.193318 -0.39737,0.289977 -0.23091,0.09666 -0.50478,0.09666 -0.27387,0 -0.50477,-0.09666 -0.23091,-0.09666 -0.39738,-0.289977 -0.16647,-0.193318 -0.26313,-0.477925 -0.0913,-0.284608 -0.0913,-0.655134 0,-0.375897 0.0913,-0.660504 0.0967,-0.284608 0.26313,-0.477926 0.16647,-0.193318 0.39738,-0.289977 0.2309,-0.09666 0.50477,-0.09666 z m 0,0.719573 q -0.24702,0 -0.39201,0.204058 -0.13961,0.198688 -0.13961,0.601435 0,0.402746 0.13961,0.601434 0.14499,0.198688 0.39201,0.198688 0.24702,0 0.39201,-0.198688 0.15036,-0.198688 0.15036,-0.601434 0,-0.402747 -0.15036,-0.601435 -0.14499,-0.204058 -0.39201,-0.204058 z" />
      <path
         id="path169"
         style="font-style:normal;font-variant:normal;font-weight:bold;font-stretch:normal;font-family:Expressway;-inkscape-font-specification:Expressway;letter-spacing:0.447497px;word-spacing:0.089499px;fill:#ffffff;stroke-width:0.089499"
         d="m 105.03775,61.572956 -1.05251,-2.905143 h 0.80549 l 0.54237,1.686164 0.54236,-1.686164 h 0.78402 l -1.03641,2.905143 z" />
      <path
         id="path171"
         style="font-style:normal;font-variant:normal;font-weight:bold;font-stretch:normal;font-family:Expressway;-inkscape-font-specification:Expressway;letter-spacing:0.447497px;word-spacing:0.089499px;fill:#ffffff;stroke-width:0.089499"
         d="m 108.8762,61.368898 q -0.30071,0.273867 -0.74105,0.273867 -0.18795,0 -0.3759,-0.05907 -0.18258,-0.0537 -0.32756,-0.177208 -0.14499,-0.123509 -0.23628,-0.316827 -0.0859,-0.198689 -0.0859,-0.472556 0,-0.247018 0.0967,-0.418856 0.10203,-0.177208 0.26313,-0.289977 0.16646,-0.112769 0.37052,-0.166469 0.20943,-0.0537 0.4296,-0.0537 0.17721,0 0.31683,0.04833 0.13961,0.04833 0.24701,0.134249 0,-0.306087 -0.10203,-0.456446 -0.0967,-0.150358 -0.3383,-0.150358 -0.24702,0 -0.43497,0.06981 -0.18795,0.06981 -0.31146,0.161099 l -0.30071,-0.579955 q 0.15573,-0.134249 0.41885,-0.225538 0.26313,-0.09129 0.62292,-0.09129 0.53699,0 0.83234,0.300717 0.29535,0.295347 0.29535,0.971961 v 1.702274 h -0.63903 z m -0.043,-0.993441 q -0.0752,-0.05907 -0.2309,-0.09666 -0.15573,-0.04296 -0.31146,-0.04296 -0.24165,0 -0.37053,0.09129 -0.12351,0.08592 -0.12351,0.289977 0,0.198688 0.11814,0.289977 0.12351,0.08592 0.36516,0.08592 0.0806,0 0.16647,-0.01611 0.0859,-0.02148 0.1611,-0.0537 0.0752,-0.03222 0.13424,-0.06981 0.0591,-0.03759 0.0913,-0.07518 z" />
      <path
         id="path173"
         style="font-style:normal;font-variant:normal;font-weight:bold;font-stretch:normal;font-family:Expressway;-inkscape-font-specification:Expressway;letter-spacing:0.447497px;word-spacing:0.089499px;fill:#ffffff;stroke-width:0.089499"
         d="m 111.23465,61.578326 q -0.12888,0 -0.25239,-0.04296 -0.11814,-0.04833 -0.2148,-0.139618 -0.0913,-0.09666 -0.15036,-0.236278 -0.0537,-0.144989 -0.0537,-0.338307 v -1.557285 h -0.392 v -0.596065 h 0.392 V 57.93213 l 0.73032,-0.247018 v 0.982701 h 0.62291 v 0.596065 h -0.62291 v 1.390817 q 0,0.107399 0.0591,0.161098 0.0591,0.0537 0.15572,0.0537 0.22017,0 0.45645,-0.268498 l -0.15036,0.784013 q -0.0806,0.08592 -0.23628,0.139619 -0.15036,0.0537 -0.34367,0.0537 z" />
      <path
         id="path175"
         style="font-style:normal;font-variant:normal;font-weight:bold;font-stretch:normal;font-family:Expressway;-inkscape-font-specification:Expressway;letter-spacing:0.447497px;word-spacing:0.089499px;fill:#ffffff;stroke-width:0.089499"
         d="m 113.34062,58.667813 v 2.905143 h -0.73568 v -2.905143 z m -0.73568,-0.644394 q 0,-0.155728 0.10202,-0.268497 0.10203,-0.112769 0.26313,-0.112769 0.15036,0 0.25776,0.112769 0.11277,0.112769 0.11277,0.268497 0,0.150359 -0.11277,0.257758 -0.1074,0.102029 -0.25776,0.102029 -0.1611,0 -0.26313,-0.102029 -0.10202,-0.107399 -0.10202,-0.257758 z" />
      <path
         id="path177"
         style="font-style:normal;font-variant:normal;font-weight:bold;font-stretch:normal;font-family:Expressway;-inkscape-font-specification:Expressway;letter-spacing:0.447497px;word-spacing:0.089499px;fill:#ffffff;stroke-width:0.089499"
         d="m 115.36193,58.598004 q 0.27387,0 0.50477,0.09666 0.23091,0.09666 0.39738,0.289977 0.16647,0.193318 0.25776,0.477926 0.0967,0.284607 0.0967,0.660504 0,0.370526 -0.0967,0.655134 -0.0913,0.284607 -0.25776,0.477925 -0.16647,0.193318 -0.39738,0.289977 -0.2309,0.09666 -0.50477,0.09666 -0.27387,0 -0.50478,-0.09666 -0.2309,-0.09666 -0.39737,-0.289977 -0.16647,-0.193318 -0.26313,-0.477925 -0.0913,-0.284608 -0.0913,-0.655134 0,-0.375897 0.0913,-0.660504 0.0967,-0.284608 0.26313,-0.477926 0.16647,-0.193318 0.39737,-0.289977 0.23091,-0.09666 0.50478,-0.09666 z m 0,0.719573 q -0.24702,0 -0.39201,0.204058 -0.13962,0.198688 -0.13962,0.601435 0,0.402746 0.13962,0.601434 0.14499,0.198688 0.39201,0.198688 0.24702,0 0.39201,-0.198688 0.15035,-0.198688 0.15035,-0.601434 0,-0.402747 -0.15035,-0.601435 -0.14499,-0.204058 -0.39201,-0.204058 z" />
      <path
         id="path179"
         style="font-style:normal;font-variant:normal;font-weight:bold;font-stretch:normal;font-family:Expressway;-inkscape-font-specification:Expressway;letter-spacing:0.447497px;word-spacing:0.089499px;fill:#ffffff;stroke-width:0.089499"
         d="m 118.95932,59.838462 q 0,-0.273867 -0.10203,-0.397376 -0.10202,-0.123509 -0.29534,-0.123509 -0.26313,0 -0.44034,0.381267 v 1.874112 h -0.73031 v -2.905143 h 0.68735 v 0.198688 q 0.1611,-0.139618 0.34368,-0.204058 0.18795,-0.06444 0.38664,-0.06444 0.18257,0 0.3383,0.06981 0.1611,0.06981 0.27924,0.204058 0.12351,0.134249 0.19332,0.338307 0.0698,0.198688 0.0698,0.456446 v 1.906332 h -0.73032 z" />
    </g>
  </g>
</svg>
