<?xml version="1.0" encoding="UTF-8"?>
<svg width="160.2" height="74.233" version="1.1" viewBox="0 0 42.386 19.641" xmlns="http://www.w3.org/2000/svg" xmlns:cc="http://creativecommons.org/ns#" xmlns:dc="http://purl.org/dc/elements/1.1/" xmlns:rdf="http://www.w3.org/1999/02/22-rdf-syntax-ns#">
<metadata>
<rdf:RDF>
<cc:Work rdf:about="">
<dc:format>image/svg+xml</dc:format>
<dc:type rdf:resource="http://purl.org/dc/dcmitype/StillImage"/>
<dc:title/>
</cc:Work>
</rdf:RDF>
</metadata>
<g transform="translate(-80.131 -43.225)">
<g transform="matrix(.33826 0 0 .33826 45.575 21.608)" fill="#525453" stroke-width=".71994">
<path transform="scale(.26458)" d="m387.84 426.85v-33.837h471.56v67.675h-471.56z"/>
<path transform="scale(.26458)" d="m387.12 350.65v-33.956h471.56v66.955l-146.69 3.2e-4c-80.679 1.8e-4 -186.78 0.21572-235.78 0.479l-89.093 0.47867z"/>
<path transform="scale(.26458)" d="m386.4 275.66v-33.837h470.84v67.675h-470.84z"/>
</g>
<g fill="#fff" stroke-width=".089499" aria-label="Centre for">
<path d="m84.025 45.426q-0.1611-0.28998-0.38664-0.45108-0.22554-0.1611-0.56922-0.1611-0.50478 0-0.81086 0.35979-0.30609 0.35442-0.30609 1.0632 0 0.70346 0.30609 1.0632 0.30609 0.35442 0.81086 0.35442 0.30609 0 0.52626-0.13425 0.22017-0.13425 0.40812-0.43497l0.40812 0.29535q-0.46719 0.77864-1.3532 0.77864-0.35442 0-0.6605-0.12351-0.30072-0.12351-0.52089-0.36516t-0.34905-0.60143q-0.12351-0.35979-0.12351-0.83771 0-0.47256 0.12351-0.83234 0.12888-0.35979 0.34905-0.60143 0.22017-0.24702 0.52626-0.37053 0.30609-0.12351 0.66587-0.12351 0.51015 0 0.84308 0.23091 0.33294 0.23091 0.51015 0.59069z"/>
<path d="m85.491 46.844q0.02148 0.22017 0.09129 0.38127 0.06981 0.1611 0.17184 0.2685 0.1074 0.10203 0.23628 0.15573 0.13425 0.04833 0.27387 0.04833 0.20943 0 0.36516-0.09666 0.1611-0.09666 0.25776-0.23628l0.33831 0.29535q-0.05907 0.08055-0.15036 0.17184-0.08592 0.08592-0.20943 0.1611-0.11814 0.06981-0.27387 0.11814-0.15573 0.04833-0.34905 0.04833-0.25239 0-0.47792-0.09129-0.22554-0.09666-0.39201-0.28461-0.16647-0.18795-0.26313-0.46718-0.09666-0.28461-0.09666-0.6605 0-0.35442 0.08592-0.62828 0.09129-0.27924 0.24702-0.46719 0.1611-0.18795 0.38127-0.28461 0.22017-0.09666 0.4833-0.09666 0.26313 0 0.4833 0.09666t0.38127 0.28461q0.1611 0.18795 0.24702 0.46719 0.09129 0.27387 0.09129 0.62828 0 0.0537-0.0054 0.10203 0 0.04296-0.0054 0.08592zm0.72494-1.2029q-0.29535 0-0.48866 0.2148-0.19332 0.20943-0.23628 0.6068h1.4445q-0.04296-0.40812-0.23628-0.61218-0.19332-0.20943-0.4833-0.20943z"/>
<path d="m88.787 45.249v0.34905q0.3222-0.41886 0.89678-0.41886 0.2148 0 0.39201 0.06444 0.18258 0.05907 0.31146 0.19332 0.12888 0.13425 0.19869 0.34905 0.06981 0.20943 0.06981 0.50478v1.7989h-0.51014v-1.7452q0-0.37053-0.17184-0.52626-0.16647-0.15573-0.45108-0.15573-0.22554 0-0.40812 0.1074-0.18258 0.1074-0.30072 0.39201v1.9278h-0.51014v-2.8407z"/>
<path d="m91.661 45.249v-0.7679l0.51014-0.16647v0.93437h0.72494v0.41886h-0.72494v1.611q0 0.34368 0.33294 0.34368 0.11277 0 0.20943-0.03759 0.10203-0.04296 0.19869-0.13425l-0.08592 0.46719q-0.07518 0.09129-0.22554 0.14499-0.14499 0.0537-0.30072 0.0537-0.26313 0-0.45108-0.17721-0.18795-0.18258-0.18795-0.54774v-1.7238h-0.3222v-0.41886z"/>
<path d="m95.213 45.802q-0.07518-0.07518-0.17721-0.1074-0.10203-0.03222-0.23091-0.03222-0.22017 0-0.39738 0.1074-0.17184 0.10203-0.29535 0.40275v1.9171h-0.51015v-2.8407h0.4833v0.34368q0.30609-0.41349 0.81623-0.41349 0.18795 0 0.30609 0.0537 0.11814 0.04833 0.19332 0.11814z"/>
<path d="m96.391 46.844q0.02148 0.22017 0.09129 0.38127 0.06981 0.1611 0.17184 0.2685 0.1074 0.10203 0.23628 0.15573 0.13425 0.04833 0.27387 0.04833 0.20943 0 0.36516-0.09666 0.1611-0.09666 0.25776-0.23628l0.33831 0.29535q-0.05907 0.08055-0.15036 0.17184-0.08592 0.08592-0.20943 0.1611-0.11814 0.06981-0.27387 0.11814-0.15573 0.04833-0.34905 0.04833-0.25239 0-0.47793-0.09129-0.22554-0.09666-0.39201-0.28461-0.16647-0.18795-0.26313-0.46718-0.09666-0.28461-0.09666-0.6605 0-0.35442 0.08592-0.62828 0.09129-0.27924 0.24702-0.46719 0.1611-0.18795 0.38127-0.28461 0.22017-0.09666 0.4833-0.09666 0.26313 0 0.4833 0.09666t0.38127 0.28461q0.1611 0.18795 0.24702 0.46719 0.09129 0.27387 0.09129 0.62828 0 0.0537-0.0054 0.10203 0 0.04296-0.0054 0.08592zm0.72494-1.2029q-0.29535 0-0.48866 0.2148-0.19332 0.20943-0.23628 0.6068h1.4445q-0.04296-0.40812-0.23628-0.61218-0.19332-0.20943-0.4833-0.20943z"/>
<path d="m102.08 44.551q-0.0376-0.01074-0.1074-0.01611-0.0698-0.01074-0.15036-0.01074-0.13425 0-0.22553 0.06444-0.0859 0.06444-0.0859 0.24702v0.41349h0.55847v0.41886h-0.55847v2.4218h-0.51015v-2.4218h-0.3222v-0.41886h0.3222v-0.49404q0-0.19869 0.0483-0.3222 0.0537-0.12888 0.14499-0.20406 0.0913-0.07518 0.2148-0.10203 0.12888-0.03222 0.27923-0.03222 0.13962 0 0.23628 0.01074 0.0967 0.01074 0.15573 0.02685z"/>
<path d="m103.72 45.179q0.25775 0 0.47792 0.09666t0.38127 0.28461q0.1611 0.18795 0.24701 0.46719 0.0913 0.27387 0.0913 0.63902 0 0.36516-0.0913 0.64439-0.0859 0.27924-0.24701 0.46718-0.15573 0.18795-0.3759 0.28461t-0.48329 0.09666q-0.2685 0-0.48867-0.09666t-0.38127-0.28461q-0.15573-0.18795-0.24701-0.46718-0.0859-0.27924-0.0859-0.64439 0-0.36516 0.0859-0.63902 0.0913-0.27924 0.25238-0.46719 0.1611-0.18795 0.38127-0.28461 0.22017-0.09666 0.4833-0.09666zm0 0.47256q-0.3222 0-0.52089 0.25776-0.19332 0.25776-0.19332 0.76253 0 0.50478 0.19332 0.76253 0.19869 0.25239 0.52089 0.25239 0.31682 0 0.51551-0.25239 0.19869-0.25776 0.19869-0.76253 0-0.50478-0.19869-0.76253-0.19869-0.25776-0.51551-0.25776z"/>
<path d="m107.41 45.802q-0.0752-0.07518-0.17721-0.1074-0.10203-0.03222-0.23091-0.03222-0.22017 0-0.39738 0.1074-0.17183 0.10203-0.29534 0.40275v1.9171h-0.51015v-2.8407h0.4833v0.34368q0.30608-0.41349 0.81623-0.41349 0.18795 0 0.30609 0.0537 0.11814 0.04833 0.19331 0.11814z"/>
</g>
<g fill="#fff" stroke-width=".089499" aria-label=" Data Ethics">
<path d="m82.623 51.254q0.39738 0 0.74105 0.14499 0.34905 0.13962 0.6068 0.39201 0.25776 0.24702 0.40275 0.58532 0.15036 0.33831 0.15036 0.73031t-0.15036 0.73031q-0.14499 0.33831-0.40275 0.5907-0.25776 0.25239-0.6068 0.39738-0.34368 0.14499-0.74105 0.14499h-1.0471v-3.716zm-0.31146 2.9911h0.31683q0.24165 0 0.45108-0.08592t0.36516-0.23628q0.15573-0.15036 0.24702-0.35442 0.09129-0.20943 0.09129-0.45645 0-0.25239-0.09129-0.46182t-0.24702-0.35442q-0.15573-0.15036-0.36516-0.23091-0.20943-0.08055-0.45108-0.08055h-0.31683z" fill="#fff"/>
<path d="m87.171 54.766q-0.30072 0.27387-0.74105 0.27387-0.18795 0-0.3759-0.05907-0.18258-0.0537-0.32757-0.17721-0.14499-0.12351-0.23628-0.31683-0.08592-0.19869-0.08592-0.47256 0-0.24702 0.09666-0.41886 0.10203-0.17721 0.26313-0.28998 0.16647-0.11277 0.37053-0.16647 0.20943-0.0537 0.4296-0.0537 0.17721 0 0.31683 0.04833 0.13962 0.04833 0.24702 0.13425 0-0.30609-0.10203-0.45645-0.09666-0.15036-0.33831-0.15036-0.24702 0-0.43497 0.06981-0.18795 0.06981-0.31146 0.1611l-0.30072-0.57996q0.15573-0.13425 0.41886-0.22554 0.26313-0.09129 0.62291-0.09129 0.537 0 0.83234 0.30072 0.29535 0.29535 0.29535 0.97196v1.7023h-0.63902zm-0.04296-0.99344q-0.07518-0.05907-0.23091-0.09666-0.15573-0.04296-0.31146-0.04296-0.24165 0-0.37053 0.09129-0.12351 0.08592-0.12351 0.28998 0 0.19869 0.11814 0.28998 0.12351 0.08592 0.36516 0.08592 0.08055 0 0.16647-0.01611 0.08592-0.02148 0.1611-0.0537 0.07518-0.03222 0.13425-0.06981 0.05907-0.03759 0.09129-0.07518z"/>
<path d="m89.709 54.976q-0.12888 0-0.25239-0.04296-0.11814-0.04833-0.2148-0.13962-0.09129-0.09666-0.15036-0.23628-0.0537-0.14499-0.0537-0.33831v-1.5573h-0.392v-0.59606h0.39201v-0.73568l0.73031-0.24702v0.9827h0.62291v0.59606h-0.62291v1.3908q0 0.1074 0.05907 0.1611t0.15573 0.0537q0.22017 0 0.45645-0.2685l-0.15036 0.78401q-0.08055 0.08592-0.23628 0.13962-0.15036 0.0537-0.34368 0.0537z"/>
<path d="m92.966 54.766q-0.30072 0.27387-0.74105 0.27387-0.18795 0-0.3759-0.05907-0.18258-0.0537-0.32757-0.17721-0.14499-0.12351-0.23628-0.31683-0.08592-0.19869-0.08592-0.47256 0-0.24702 0.09666-0.41886 0.10203-0.17721 0.26313-0.28998 0.16647-0.11277 0.37053-0.16647 0.20943-0.0537 0.4296-0.0537 0.17721 0 0.31683 0.04833 0.13962 0.04833 0.24702 0.13425 0-0.30609-0.10203-0.45645-0.09666-0.15036-0.33831-0.15036-0.24702 0-0.43497 0.06981-0.18795 0.06981-0.31146 0.1611l-0.30072-0.57996q0.15573-0.13425 0.41886-0.22554 0.26313-0.09129 0.62292-0.09129 0.537 0 0.83234 0.30072 0.29535 0.29535 0.29535 0.97196v1.7023h-0.63902zm-0.04296-0.99344q-0.07518-0.05907-0.23091-0.09666-0.15573-0.04296-0.31146-0.04296-0.24165 0-0.37053 0.09129-0.12351 0.08592-0.12351 0.28998 0 0.19869 0.11814 0.28998 0.12351 0.08592 0.36516 0.08592 0.08055 0 0.16647-0.01611 0.08592-0.02148 0.1611-0.0537 0.07518-0.03222 0.13425-0.06981 0.05907-0.03759 0.09129-0.07518z"/>
<path d="m96.5 51.254h2.1534v0.73031h-1.423v0.72494h0.88067v0.73031h-0.88067v0.81086h1.4606v0.71957h-2.1909z"/>
<path d="m100.57 54.976q-0.12888 0-0.25239-0.04296-0.11813-0.04833-0.21479-0.13962-0.0913-0.09666-0.15036-0.23628-0.0537-0.14499-0.0537-0.33831v-1.5573h-0.39201v-0.59606h0.39201v-0.73568l0.73031-0.24702v0.9827h0.62292v0.59606h-0.62292v1.3908q0 0.1074 0.0591 0.1611t0.15573 0.0537q0.22017 0 0.45645-0.2685l-0.15036 0.78401q-0.0806 0.08592-0.23628 0.13962-0.15036 0.0537-0.34368 0.0537z"/>
<path d="m103.68 53.236q0-0.51014-0.38126-0.51014-0.28998 0-0.45645 0.3759v1.8687h-0.73031v-3.6623l0.73031-0.25239v1.2082q0.13962-0.13962 0.29535-0.20406 0.1611-0.06444 0.38663-0.06444 0.18258 0 0.34368 0.06981t0.27924 0.20943q0.11814 0.13425 0.18795 0.33294 0.0698 0.19869 0.0698 0.45644v1.9063h-0.72495z"/>
<path d="m106.05 52.065v2.9051h-0.73569v-2.9051zm-0.73569-0.64439q0-0.15573 0.10203-0.2685t0.26313-0.11277q0.15036 0 0.25776 0.11277 0.11277 0.11277 0.11277 0.2685 0 0.15036-0.11277 0.25776-0.1074 0.10203-0.25776 0.10203-0.1611 0-0.26313-0.10203-0.10203-0.1074-0.10203-0.25776z"/>
<path d="m108.27 52.715q-0.24165 0-0.39738 0.20406-0.15573 0.19869-0.15573 0.60143t0.15573 0.60144q0.15573 0.19869 0.39738 0.19869 0.10739 0 0.23627-0.07518 0.13425-0.08055 0.24702-0.23091l0.52626 0.46718q-0.0644 0.09129-0.1611 0.19332-0.0967 0.09666-0.22554 0.17721-0.12888 0.08055-0.30072 0.13425-0.16647 0.0537-0.37589 0.0537-0.25239 0-0.47793-0.09666-0.22017-0.09666-0.38664-0.28998-0.16646-0.19332-0.26312-0.47793-0.0967-0.28461-0.0967-0.65513 0-0.3759 0.0967-0.6605 0.0967-0.28461 0.27386-0.47792 0.17721-0.19332 0.41886-0.28998 0.24702-0.09666 0.53699-0.09666 0.35442 0 0.60144 0.15573 0.25239 0.15573 0.39201 0.4296l-0.55848 0.51552q-0.0913-0.20943-0.20406-0.29535-0.1074-0.08592-0.27923-0.08592z"/>
<path d="m111.26 51.979q0.3383 0 0.57458 0.06981t0.44034 0.23628l-0.25239 0.61217q-0.0644-0.07518-0.17721-0.12351-0.1074-0.0537-0.22554-0.08592-0.11277-0.03222-0.22016-0.04296-0.1074-0.01611-0.16647-0.01611-0.1611 0-0.24165 0.0537-0.0752 0.0537-0.0752 0.13425 0 0.02685 0.0322 0.05907 0.0376 0.03222 0.0859 0.06981 0.0537 0.03222 0.11814 0.06444 0.0644 0.02685 0.12888 0.04833 0.19331 0.07518 0.392 0.15036 0.20406 0.07518 0.36516 0.18795 0.1611 0.11277 0.26313 0.28461 0.1074 0.16647 0.1074 0.4296 0 0.27387-0.10203 0.45108-0.0967 0.17721-0.25776 0.28461-0.1611 0.10203-0.36516 0.13962-0.19869 0.04296-0.39737 0.04296-0.39201 0-0.70347-0.10203-0.30608-0.10203-0.48329-0.24165l0.26313-0.60143q0.16646 0.11277 0.40811 0.19869 0.24702 0.08055 0.50478 0.08055 0.0698 0 0.14499-0.0054 0.0752-0.01074 0.13424-0.03222 0.0591-0.02148 0.0967-0.05907 0.043-0.04296 0.043-0.10203 0-0.11277-0.12888-0.18258-0.1235-0.07518-0.28997-0.14499-0.17721-0.07518-0.37053-0.14499-0.19332-0.06981-0.34905-0.17184-0.15573-0.1074-0.25775-0.26313-0.10203-0.1611-0.10203-0.41349 0-0.2685 0.10203-0.43496 0.10739-0.17184 0.26312-0.26313 0.1611-0.09666 0.34905-0.12888 0.18795-0.03759 0.34905-0.03759z"/>
</g>
<g fill="#fff" stroke-width=".089499" aria-label="and Innovation">
<path d="m83.321 61.369q-0.30072 0.27387-0.74105 0.27387-0.18795 0-0.3759-0.05907-0.18258-0.0537-0.32757-0.17721-0.14499-0.12351-0.23628-0.31683-0.08592-0.19869-0.08592-0.47256 0-0.24702 0.09666-0.41886 0.10203-0.17721 0.26313-0.28998 0.16647-0.11277 0.37053-0.16647 0.20943-0.0537 0.4296-0.0537 0.17721 0 0.31683 0.04833t0.24702 0.13425q0-0.30609-0.10203-0.45645-0.09666-0.15036-0.33831-0.15036-0.24702 0-0.43497 0.06981t-0.31146 0.1611l-0.30072-0.57996q0.15573-0.13425 0.41886-0.22554 0.26313-0.09129 0.62291-0.09129 0.537 0 0.83234 0.30072 0.29535 0.29535 0.29535 0.97196v1.7023h-0.63902zm-0.04296-0.99344q-0.07518-0.05907-0.23091-0.09666-0.15573-0.04296-0.31146-0.04296-0.24165 0-0.37053 0.09129-0.12351 0.08592-0.12351 0.28998 0 0.19869 0.11814 0.28998 0.12351 0.08592 0.36516 0.08592 0.08055 0 0.16647-0.01611 0.08592-0.02148 0.1611-0.0537 0.07518-0.03222 0.13425-0.06981 0.05907-0.03759 0.09129-0.07518z"/>
<path d="m86.356 59.838q0-0.27387-0.10203-0.39738t-0.29535-0.12351q-0.26313 0-0.44034 0.38127v1.8741h-0.73031v-2.9051h0.68735v0.19869q0.1611-0.13962 0.34368-0.20406 0.18795-0.06444 0.38664-0.06444 0.18258 0 0.33831 0.06981 0.1611 0.06981 0.27924 0.20406 0.12351 0.13425 0.19332 0.33831 0.06981 0.19869 0.06981 0.45645v1.9063h-0.73031z"/>
<path d="m90.219 61.573h-0.63365v-0.24165q-0.06444 0.12888-0.25776 0.22017-0.19332 0.09129-0.42423 0.09129-0.22017 0-0.41349-0.09666-0.19332-0.10203-0.33831-0.29535-0.13962-0.19332-0.22017-0.47792-0.08055-0.28461-0.08055-0.64976 0-0.3759 0.07518-0.6605 0.08055-0.28461 0.22017-0.47793 0.14499-0.19332 0.33294-0.28998 0.19332-0.09666 0.41886-0.09666 0.24165 0 0.38664 0.07518 0.14499 0.07518 0.20943 0.18795v-0.95585l0.72494-0.24702zm-1.1438-2.2822q-0.53162 0-0.53162 0.82697 0 0.40275 0.12888 0.61217 0.13425 0.20943 0.38127 0.20943 0.18258 0 0.30072-0.12351 0.11814-0.12888 0.18795-0.30072v-0.82697q-0.08592-0.20406-0.20943-0.30072-0.11814-0.09666-0.25776-0.09666z"/>
<path d="m93.3 57.857h0.73031v3.716h-0.73031z"/>
<path d="m96.427 59.838q0-0.27387-0.10203-0.39738t-0.29535-0.12351q-0.26313 0-0.44034 0.38127v1.8741h-0.73031v-2.9051h0.68735v0.19869q0.1611-0.13962 0.34368-0.20406 0.18795-0.06444 0.38664-0.06444 0.18258 0 0.33831 0.06981 0.1611 0.06981 0.27924 0.20406 0.12351 0.13425 0.19332 0.33831 0.06981 0.19869 0.06981 0.45645v1.9063h-0.73031z"/>
<path d="m99.549 59.838q0-0.27387-0.10203-0.39738t-0.29535-0.12351q-0.26313 0-0.44034 0.38127v1.8741h-0.73031v-2.9051h0.68735v0.19869q0.1611-0.13962 0.34368-0.20406 0.18795-0.06444 0.38664-0.06444 0.18258 0 0.33831 0.06981 0.1611 0.06981 0.27924 0.20406 0.12351 0.13425 0.19332 0.33831 0.0698 0.19869 0.0698 0.45645v1.9063h-0.73032z"/>
<path d="m102.3 58.598q0.27387 0 0.50478 0.09666 0.2309 0.09666 0.39737 0.28998 0.16647 0.19332 0.25776 0.47793 0.0967 0.28461 0.0967 0.6605 0 0.37053-0.0967 0.65513-0.0913 0.28461-0.25776 0.47792-0.16647 0.19332-0.39737 0.28998-0.23091 0.09666-0.50478 0.09666t-0.50477-0.09666q-0.23091-0.09666-0.39738-0.28998-0.16647-0.19332-0.26313-0.47792-0.0913-0.28461-0.0913-0.65513 0-0.3759 0.0913-0.6605 0.0967-0.28461 0.26313-0.47793 0.16647-0.19332 0.39738-0.28998 0.2309-0.09666 0.50477-0.09666zm0 0.71957q-0.24702 0-0.39201 0.20406-0.13961 0.19869-0.13961 0.60144 0 0.40275 0.13961 0.60143 0.14499 0.19869 0.39201 0.19869t0.39201-0.19869q0.15036-0.19869 0.15036-0.60143 0-0.40275-0.15036-0.60144-0.14499-0.20406-0.39201-0.20406z"/>
<path d="m105.04 61.573-1.0525-2.9051h0.80549l0.54237 1.6862 0.54236-1.6862h0.78402l-1.0364 2.9051z"/>
<path d="m108.88 61.369q-0.30071 0.27387-0.74105 0.27387-0.18795 0-0.3759-0.05907-0.18258-0.0537-0.32756-0.17721-0.14499-0.12351-0.23628-0.31683-0.0859-0.19869-0.0859-0.47256 0-0.24702 0.0967-0.41886 0.10203-0.17721 0.26313-0.28998 0.16646-0.11277 0.37052-0.16647 0.20943-0.0537 0.4296-0.0537 0.17721 0 0.31683 0.04833 0.13961 0.04833 0.24701 0.13425 0-0.30609-0.10203-0.45645-0.0967-0.15036-0.3383-0.15036-0.24702 0-0.43497 0.06981t-0.31146 0.1611l-0.30071-0.57996q0.15573-0.13425 0.41885-0.22554 0.26313-0.09129 0.62292-0.09129 0.53699 0 0.83234 0.30072 0.29535 0.29535 0.29535 0.97196v1.7023h-0.63903zm-0.043-0.99344q-0.0752-0.05907-0.2309-0.09666-0.15573-0.04296-0.31146-0.04296-0.24165 0-0.37053 0.09129-0.12351 0.08592-0.12351 0.28998 0 0.19869 0.11814 0.28998 0.12351 0.08592 0.36516 0.08592 0.0806 0 0.16647-0.01611 0.0859-0.02148 0.1611-0.0537t0.13424-0.06981q0.0591-0.03759 0.0913-0.07518z"/>
<path d="m111.23 61.578q-0.12888 0-0.25239-0.04296-0.11814-0.04833-0.2148-0.13962-0.0913-0.09666-0.15036-0.23628-0.0537-0.14499-0.0537-0.33831v-1.5573h-0.392v-0.59606h0.392v-0.73568l0.73032-0.24702v0.9827h0.62291v0.59606h-0.62291v1.3908q0 0.1074 0.0591 0.1611 0.0591 0.0537 0.15572 0.0537 0.22017 0 0.45645-0.2685l-0.15036 0.78401q-0.0806 0.08592-0.23628 0.13962-0.15036 0.0537-0.34367 0.0537z"/>
<path d="m113.34 58.668v2.9051h-0.73568v-2.9051zm-0.73568-0.64439q0-0.15573 0.10202-0.2685 0.10203-0.11277 0.26313-0.11277 0.15036 0 0.25776 0.11277 0.11277 0.11277 0.11277 0.2685 0 0.15036-0.11277 0.25776-0.1074 0.10203-0.25776 0.10203-0.1611 0-0.26313-0.10203-0.10202-0.1074-0.10202-0.25776z"/>
<path d="m115.36 58.598q0.27387 0 0.50477 0.09666 0.23091 0.09666 0.39738 0.28998 0.16647 0.19332 0.25776 0.47793 0.0967 0.28461 0.0967 0.6605 0 0.37053-0.0967 0.65513-0.0913 0.28461-0.25776 0.47792-0.16647 0.19332-0.39738 0.28998-0.2309 0.09666-0.50477 0.09666t-0.50478-0.09666q-0.2309-0.09666-0.39737-0.28998-0.16647-0.19332-0.26313-0.47792-0.0913-0.28461-0.0913-0.65513 0-0.3759 0.0913-0.6605 0.0967-0.28461 0.26313-0.47793 0.16647-0.19332 0.39737-0.28998 0.23091-0.09666 0.50478-0.09666zm0 0.71957q-0.24702 0-0.39201 0.20406-0.13962 0.19869-0.13962 0.60144 0 0.40275 0.13962 0.60143 0.14499 0.19869 0.39201 0.19869t0.39201-0.19869q0.15035-0.19869 0.15035-0.60143 0-0.40275-0.15035-0.60144-0.14499-0.20406-0.39201-0.20406z"/>
<path d="m118.96 59.838q0-0.27387-0.10203-0.39738-0.10202-0.12351-0.29534-0.12351-0.26313 0-0.44034 0.38127v1.8741h-0.73031v-2.9051h0.68735v0.19869q0.1611-0.13962 0.34368-0.20406 0.18795-0.06444 0.38664-0.06444 0.18257 0 0.3383 0.06981 0.1611 0.06981 0.27924 0.20406 0.12351 0.13425 0.19332 0.33831 0.0698 0.19869 0.0698 0.45645v1.9063h-0.73032z"/>
</g>
</g>
</svg>
