<?xml version="1.0" encoding="UTF-8"?>
<svg width="160.2" height="74.233" version="1.1" viewBox="0 0 42.386 19.641" xmlns="http://www.w3.org/2000/svg" xmlns:cc="http://creativecommons.org/ns#" xmlns:dc="http://purl.org/dc/elements/1.1/" xmlns:rdf="http://www.w3.org/1999/02/22-rdf-syntax-ns#">
<metadata>
<rdf:RDF>
<cc:Work rdf:about="">
<dc:format>image/svg+xml</dc:format>
<dc:type rdf:resource="http://purl.org/dc/dcmitype/StillImage"/>
<dc:title/>
</cc:Work>
</rdf:RDF>
</metadata>
<g transform="translate(-80.367 -43.653)">
<g transform="matrix(.33826 0 0 .33826 45.811 22.037)" fill="#525453" stroke-width=".71994">
<path transform="scale(.26458)" d="m387.84 426.85v-33.837h471.56v67.675h-471.56z"/>
<path transform="scale(.26458)" d="m387.12 350.65v-33.956h471.56v66.955l-146.69 3.2e-4c-80.679 1.8e-4 -186.78 0.21572-235.78 0.479l-89.093 0.47867z"/>
<path transform="scale(.26458)" d="m386.4 275.66v-33.837h470.84v67.675h-470.84z"/>
</g>
<g transform="matrix(.33826 0 0 .33826 68.624 33.888)" fill="#fff" stroke-width=".26458" aria-label="Centre for">
<path d="m46.991 34.994q-0.47625-0.85725-1.143-1.3335t-1.6828-0.47625q-1.4922 0-2.3971 1.0636-0.90488 1.0478-0.90488 3.1432 0 2.0796 0.90488 3.1432 0.90488 1.0478 2.3971 1.0478 0.90488 0 1.5558-0.39688t1.2065-1.2859l1.2065 0.87312q-1.3811 2.3019-4.0005 2.3019-1.0478 0-1.9526-0.36512-0.889-0.36512-1.5399-1.0795t-1.0319-1.778q-0.36512-1.0636-0.36512-2.4765 0-1.397 0.36512-2.4606 0.381-1.0636 1.0319-1.778 0.65088-0.73025 1.5558-1.0954t1.9685-0.36512q1.5081 0 2.4924 0.68262t1.5081 1.7462z"/>
<path d="m51.323 39.185q0.0635 0.65088 0.26988 1.1271t0.508 0.79375q0.3175 0.30162 0.6985 0.46038 0.39688 0.14288 0.80962 0.14288 0.61912 0 1.0795-0.28575 0.47625-0.28575 0.762-0.6985l1.0001 0.87312q-0.17462 0.23812-0.4445 0.508-0.254 0.254-0.61912 0.47625-0.34925 0.20638-0.80962 0.34925t-1.0319 0.14288q-0.74612 0-1.4129-0.26988-0.66675-0.28575-1.1589-0.84138t-0.77788-1.3811q-0.28575-0.84138-0.28575-1.9526 0-1.0478 0.254-1.8574 0.26988-0.8255 0.73025-1.3811 0.47625-0.55562 1.1271-0.84138t1.4288-0.28575 1.4288 0.28575 1.1271 0.84138 0.73025 1.3811q0.26988 0.80962 0.26988 1.8574 0 0.15875-0.01588 0.30162 0 0.127-0.01588 0.254zm2.1431-3.556q-0.87312 0-1.4446 0.635-0.5715 0.61912-0.6985 1.7939h4.2704q-0.127-1.2065-0.6985-1.8098-0.5715-0.61912-1.4288-0.61912z"/>
<path d="m61.068 34.47v1.0319q0.9525-1.2382 2.6511-1.2382 0.635 0 1.1589 0.1905 0.53975 0.17462 0.92075 0.5715t0.58738 1.0319q0.20638 0.61912 0.20638 1.4922v5.3181h-1.5081v-5.1594q0-1.0954-0.508-1.5558-0.49212-0.46038-1.3335-0.46038-0.66675 0-1.2065 0.3175t-0.889 1.1589v5.6991h-1.5081v-8.3979z"/>
<path d="m69.565 34.47v-2.2701l1.5081-0.49212v2.7622h2.1431v1.2382h-2.1431v4.7625q0 1.016 0.98425 1.016 0.33338 0 0.61912-0.11112 0.30162-0.127 0.58738-0.39688l-0.254 1.3811q-0.22225 0.26988-0.66675 0.42862-0.42862 0.15875-0.889 0.15875-0.77788 0-1.3335-0.52388-0.55562-0.53975-0.55562-1.6192v-5.0959h-0.9525v-1.2382z"/>
<path d="m80.064 36.105q-0.22225-0.22225-0.52388-0.3175t-0.68262-0.09525q-0.65088 0-1.1748 0.3175-0.508 0.30162-0.87312 1.1906v5.6674h-1.5081v-8.3979h1.4288v1.016q0.90488-1.2224 2.413-1.2224 0.55562 0 0.90488 0.15875 0.34925 0.14288 0.5715 0.34925z"/>
<path d="m83.546 39.185q0.0635 0.65088 0.26988 1.1271t0.508 0.79375q0.3175 0.30162 0.6985 0.46038 0.39688 0.14288 0.80962 0.14288 0.61912 0 1.0795-0.28575 0.47625-0.28575 0.762-0.6985l1.0001 0.87312q-0.17462 0.23812-0.4445 0.508-0.254 0.254-0.61912 0.47625-0.34925 0.20638-0.80962 0.34925t-1.0319 0.14288q-0.74612 0-1.4129-0.26988-0.66675-0.28575-1.1589-0.84138t-0.77788-1.3811q-0.28575-0.84138-0.28575-1.9526 0-1.0478 0.254-1.8574 0.26988-0.8255 0.73025-1.3811 0.47625-0.55562 1.1271-0.84138t1.4288-0.28575 1.4288 0.28575 1.1271 0.84138 0.73025 1.3811q0.26988 0.80962 0.26988 1.8574 0 0.15875-0.01587 0.30162 0 0.127-0.01588 0.254zm2.1431-3.556q-0.87312 0-1.4446 0.635-0.5715 0.61912-0.6985 1.7939h4.2704q-0.127-1.2065-0.6985-1.8098-0.5715-0.61912-1.4288-0.61912z"/>
<path d="m99.833 32.406q-0.11112-0.03175-0.3175-0.04763-0.20638-0.03175-0.4445-0.03175-0.39688 0-0.66675 0.1905-0.254 0.1905-0.254 0.73025v1.2224h1.651v1.2382h-1.651v7.1596h-1.5081v-7.1596h-0.9525v-1.2382h0.9525v-1.4605q0-0.58738 0.14288-0.9525 0.15875-0.381 0.42862-0.60325t0.635-0.30162q0.381-0.09525 0.8255-0.09525 0.41275 0 0.6985 0.03175t0.46038 0.07937z"/>
<path d="m104.67 34.264q0.762 0 1.4129 0.28575 0.65087 0.28575 1.1271 0.84138t0.73025 1.3811q0.26988 0.80962 0.26988 1.8891t-0.26988 1.905q-0.254 0.8255-0.73025 1.3811-0.46037 0.55562-1.1112 0.84138-0.65087 0.28575-1.4288 0.28575-0.79375 0-1.4446-0.28575-0.65088-0.28575-1.1271-0.84138-0.46037-0.55562-0.73025-1.3811-0.254-0.8255-0.254-1.905t0.254-1.8891q0.26988-0.8255 0.74613-1.3811t1.1271-0.84138q0.65088-0.28575 1.4288-0.28575zm0 1.397q-0.9525 0-1.5399 0.762-0.5715 0.762-0.5715 2.2542t0.5715 2.2542q0.58737 0.74612 1.5399 0.74612 0.93663 0 1.524-0.74612 0.58738-0.762 0.58738-2.2542t-0.58738-2.2542q-0.58737-0.762-1.524-0.762z"/>
<path d="m115.61 36.105q-0.22225-0.22225-0.52388-0.3175-0.30162-0.09525-0.68262-0.09525-0.65088 0-1.1748 0.3175-0.508 0.30162-0.87313 1.1906v5.6674h-1.5081v-8.3979h1.4288v1.016q0.90487-1.2224 2.413-1.2224 0.55562 0 0.90487 0.15875 0.34925 0.14288 0.5715 0.34925z"/>
</g>
<g transform="matrix(.33826 0 0 .33826 68.624 33.888)" fill="#fff" stroke-width=".26458" aria-label=" Data Ethics">
<path d="m43.322 59.834q0.74613 0 1.3596-0.16581 0.61348-0.16581 1.0114-0.46426 0.56374-0.4311 0.87877-1.1441 0.31503-0.72955 0.31503-1.5917 0-0.96167-0.39793-1.7244-0.38135-0.76271-1.0777-1.1441-0.4311-0.23213-0.87877-0.31503-0.44768-0.09948-1.1772-0.09948h-1.0114v6.6488zm-0.03316-8.854q0.64664 0 1.1772 0.06632 0.53058 0.06632 0.99484 0.19897 0.46426 0.13264 0.86219 0.34819 0.41452 0.21555 0.79587 0.53058 1.9731 1.5752 1.9731 4.3939 0 1.542-0.64664 2.7524-0.63006 1.1938-1.8404 1.9731-0.6798 0.41452-1.4591 0.61348-0.76271 0.18239-1.8404 0.18239h-3.1669v-11.059z"/>
<path d="m55.837 58.507q-0.5969-0.23213-0.91193-0.31503-0.31503-0.0829-0.64664-0.0829-0.63006 0-1.028 0.29845-0.38135 0.28187-0.38135 0.76271 0 0.48084 0.4311 0.82903 0.4311 0.33161 1.0612 0.33161 0.76271 0 1.4757-0.514zm0 3.5317v-0.38135q-0.97826 0.54716-2.0892 0.54716-0.61348 0-1.1441-0.21555-0.53058-0.21555-0.91193-0.5969-0.38135-0.38135-0.61348-0.89535-0.21555-0.53058-0.21555-1.1441 0-0.63006 0.23213-1.1606t0.64664-0.91193q0.4311-0.38135 1.0114-0.58032 0.5969-0.21555 1.3099-0.21555 0.44768 0 0.82903 0.06632 0.38135 0.04974 0.94509 0.23213v-0.54716q-0.01658-0.38135-0.39794-0.61348-0.36477-0.23213-0.97826-0.23213-0.44768 0-0.91193 0.11606-0.46426 0.11606-1.2104 0.4311l-0.77929-1.4591q0.76271-0.46426 1.4923-0.6798 0.72955-0.21555 1.5586-0.21555 0.92851 0 1.5752 0.28187 0.64664 0.28187 1.1275 0.89535 0.18239 0.24871 0.29845 0.46426 0.13264 0.21555 0.19897 0.48084 0.0829 0.24871 0.09948 0.56374 0.03316 0.29845 0.03316 0.71297v5.0571z"/>
<path d="m63.263 53.749h2.0394v2.1057h-2.0394v2.9182q0 0.77929 0.24871 1.028 0.26529 0.26529 0.72955 0.26529 0.28187 0 0.49742-0.09948 0.23213-0.11606 0.56374-0.41452l-0.29845 2.255q-0.38135 0.21555-0.72955 0.29845-0.34819 0.09948-0.77929 0.09948-0.514 0-0.94509-0.16581-0.4311-0.14922-0.74613-0.41452-0.29845-0.28187-0.48084-0.66322-0.16581-0.39793-0.16581-0.87877v-4.2281h-1.4425v-2.1057h1.4425v-1.9897l2.1057-0.77929z"/>
<path d="m72.126 58.507q-0.5969-0.23213-0.91193-0.31503-0.31503-0.0829-0.64664-0.0829-0.63006 0-1.028 0.29845-0.38135 0.28187-0.38135 0.76271 0 0.48084 0.4311 0.82903 0.4311 0.33161 1.0612 0.33161 0.76271 0 1.4757-0.514zm0 3.5317v-0.38135q-0.97826 0.54716-2.0892 0.54716-0.61348 0-1.1441-0.21555-0.53058-0.21555-0.91193-0.5969t-0.61348-0.89535q-0.21555-0.53058-0.21555-1.1441 0-0.63006 0.23213-1.1606 0.23213-0.53058 0.64664-0.91193 0.4311-0.38135 1.0114-0.58032 0.5969-0.21555 1.3099-0.21555 0.44768 0 0.82903 0.06632 0.38135 0.04974 0.94509 0.23213v-0.54716q-0.01658-0.38135-0.39793-0.61348-0.36477-0.23213-0.97826-0.23213-0.44768 0-0.91193 0.11606-0.46426 0.11606-1.2104 0.4311l-0.77929-1.4591q0.76271-0.46426 1.4923-0.6798 0.72955-0.21555 1.5586-0.21555 0.92851 0 1.5752 0.28187 0.64664 0.28187 1.1275 0.89535 0.18239 0.24871 0.29845 0.46426 0.13264 0.21555 0.19897 0.48084 0.0829 0.24871 0.09948 0.56374 0.03316 0.29845 0.03316 0.71297v5.0571z"/>
<path d="m89.798 50.98v2.2052h-6.1017v1.8404h3.4653v2.2384h-3.4653v2.57h6.3006v2.2052h-8.5058v-11.059z"/>
<path d="m94.661 53.749h2.0394v2.1057h-2.0394v2.9182q0 0.77929 0.24871 1.028 0.26529 0.26529 0.72955 0.26529 0.28187 0 0.49742-0.09948 0.23213-0.11606 0.56374-0.41452l-0.29845 2.255q-0.38135 0.21555-0.72955 0.29845-0.34819 0.09948-0.77929 0.09948-0.514 0-0.94509-0.16581-0.4311-0.14922-0.74613-0.41452-0.29845-0.28187-0.48084-0.66322-0.16581-0.39793-0.16581-0.87877v-4.2281h-1.4425v-2.1057h1.4425v-1.9897l2.1057-0.77929z"/>
<path d="m101.17 54.147q0.61348-0.31503 1.0446-0.4311 0.43109-0.13264 0.91193-0.13264 0.81245 0 1.5254 0.4311 0.72955 0.41452 1.0612 1.1109 0.0995 0.19897 0.14923 0.39793 0.0663 0.18239 0.0995 0.4311 0.0497 0.24871 0.0497 0.5969 0.0166 0.34819 0.0166 0.87877v4.6094h-2.1057v-4.8747q0-0.69639-0.36477-1.0777-0.36478-0.39794-0.99484-0.39794t-1.0114 0.39794q-0.38135 0.39793-0.38135 1.0612v4.8913h-2.1057v-10.28l2.1057-0.77929z"/>
<path d="m109.58 50.963q0.44768 0 0.76271 0.33161 0.33161 0.33161 0.33161 0.77929 0 0.46426-0.33161 0.79587-0.31503 0.31503-0.77929 0.31503t-0.79587-0.31503q-0.31503-0.33161-0.31503-0.81245 0-0.44768 0.31503-0.76271 0.33161-0.33161 0.81245-0.33161zm-1.0777 11.076v-8.2903h2.1057v8.2903z"/>
<path d="m118.57 56.65q-0.4311-0.64664-0.82903-0.91193-0.38136-0.28187-0.89535-0.28187-0.38136 0-0.71297 0.18239-0.31503 0.18239-0.56374 0.514-0.23213 0.31503-0.36477 0.76271-0.13265 0.44768-0.13265 0.96167 0 0.53058 0.13265 0.97826 0.14922 0.4311 0.39793 0.76271t0.58032 0.514q0.34819 0.18239 0.74613 0.18239 0.53058 0 0.99483-0.31503 0.48084-0.31503 0.79587-0.87877l1.343 1.3596q-0.56374 0.81245-1.4094 1.2767-0.84561 0.44768-1.7907 0.44768-0.84561 0-1.6912-0.41452-0.82903-0.4311-1.3596-1.1275-0.4311-0.56374-0.63007-1.2104-0.19896-0.64664-0.19896-1.4923 0-2.0228 1.1441-3.2001 0.53058-0.53058 1.2601-0.84561 0.72955-0.33161 1.4425-0.33161 0.89536 0 1.6912 0.44768 0.81245 0.4311 1.3099 1.1772z"/>
<path d="m127.45 56.153q-1.2767-0.69638-2.5368-0.69638-1.028 0-1.028 0.64664 0 0.28187 0.13265 0.41452 0.14922 0.13264 0.58032 0.26529 0.19896 0.06632 0.53058 0.16581 0.33161 0.0829 0.96167 0.26529 1.0943 0.31503 1.7244 0.99484 0.64665 0.66322 0.64665 1.5088 0 0.97826-0.69639 1.6249-0.49742 0.48084-1.1109 0.6798-0.61348 0.18239-1.5917 0.18239-1.0114 0-1.8404-0.21555-0.82903-0.23213-1.6249-0.72955l0.77929-1.7575q0.69638 0.39794 1.4591 0.63006 0.76271 0.23213 1.4591 0.23213 0.54716 0 0.84561-0.18239 0.31503-0.19897 0.31503-0.54716 0-0.16581-0.0497-0.28187-0.0332-0.13264-0.1658-0.23213-0.13265-0.09948-0.38136-0.18239-0.23213-0.09948-0.63006-0.21555-0.64664-0.19897-1.0612-0.31503-0.39793-0.13264-0.64664-0.21555-0.24871-0.09948-0.39794-0.18239-0.14922-0.0829-0.31503-0.18239-0.48083-0.33161-0.74612-0.82903t-0.26529-1.0446q0-0.53058 0.23212-0.96168 0.23213-0.44768 0.64665-0.74613 0.41451-0.31503 0.99483-0.48084 0.59691-0.18239 1.3099-0.18239 0.84561 0 1.5752 0.23213 0.72954 0.21555 1.6581 0.72955z"/>
</g>
<g transform="matrix(.33826 0 0 .33826 68.624 33.888)" fill="#fff" stroke-width=".26458" aria-label="and Innovation">
<path d="m44.171 77.976q-0.6096-0.23707-0.93133-0.32173-0.32173-0.08467-0.6604-0.08467-0.64347 0-1.0499 0.3048-0.38947 0.28787-0.38947 0.77893 0 0.49106 0.44027 0.84666 0.44027 0.33867 1.0837 0.33867 0.77893 0 1.5071-0.52493zm0 3.6068v-0.38946q-0.99906 0.5588-2.1336 0.5588-0.62653 0-1.1684-0.22013-0.54186-0.22013-0.93133-0.6096t-0.62653-0.9144q-0.22013-0.54187-0.22013-1.1684 0-0.64347 0.23707-1.1853 0.23707-0.54187 0.6604-0.93133 0.44027-0.38947 1.0329-0.59266 0.6096-0.22013 1.3377-0.22013 0.4572 0 0.84666 0.06773 0.38947 0.0508 0.9652 0.23707v-0.5588q-0.01693-0.38946-0.4064-0.62653-0.37253-0.23707-0.99906-0.23707-0.4572 0-0.93133 0.11853-0.47413 0.11853-1.2361 0.44027l-0.79587-1.4901q0.77893-0.47413 1.524-0.69427 0.74507-0.22013 1.5917-0.22013 0.94826 0 1.6087 0.28787 0.6604 0.28787 1.1515 0.9144 0.18627 0.254 0.3048 0.47413 0.13547 0.22013 0.2032 0.49107 0.08467 0.254 0.1016 0.57573 0.03387 0.3048 0.03387 0.72813v5.1647z" fill="#fff"/>
<path d="m50.959 73.523q0.6096-0.32173 1.0668-0.44027 0.4572-0.13547 0.99906-0.13547 0.8636 0 1.5917 0.44027 0.72813 0.42333 1.0837 1.1345 0.1016 0.2032 0.1524 0.4064 0.06773 0.18627 0.1016 0.44026 0.0508 0.254 0.0508 0.6096 0.01693 0.3556 0.01693 0.89746v4.7075h-2.1505v-4.9784q0-0.7112-0.37253-1.1007-0.37253-0.4064-1.0668-0.4064-0.67733 0-1.0837 0.4064-0.38947 0.38947-0.38947 1.0837v4.9953h-2.1505v-8.4666h2.1505z" fill="#fff"/>
<path d="m63.189 75.978q-0.5588-0.88053-1.3547-0.88053-0.7112 0-1.1345 0.59266-0.4064 0.59267-0.4064 1.5917 0 1.0499 0.44027 1.6764 0.44027 0.6096 1.1684 0.6096t1.2869-0.72813zm2.0828-5.6896v11.295h-2.0828v-0.47413q-0.3556 0.3048-0.88053 0.47413-0.508 0.16933-1.0499 0.16933-0.47413 0-0.94826-0.16933-0.4572-0.18627-0.82973-0.508-0.69426-0.59266-1.016-1.4732-0.3048-0.88053-0.3048-2.2521 0-2.2521 0.9652-3.3189 0.44026-0.49107 1.0668-0.77893 0.62653-0.3048 1.2361-0.3048 0.49107 0 0.88053 0.1524 0.4064 0.1524 0.88053 0.508v-2.5231z" fill="#fff"/>
<path d="m75.448 70.289v11.295h-2.2521v-11.295z"/>
<path d="m80.201 73.523q0.6096-0.32173 1.0668-0.44027 0.4572-0.13547 0.99906-0.13547 0.8636 0 1.5917 0.44027 0.72813 0.42333 1.0837 1.1345 0.1016 0.2032 0.1524 0.4064 0.06773 0.18627 0.1016 0.44026 0.0508 0.254 0.0508 0.6096 0.01693 0.3556 0.01693 0.89746v4.7075h-2.1505v-4.9784q0-0.7112-0.37253-1.1007-0.37253-0.4064-1.0668-0.4064-0.67733 0-1.0837 0.4064-0.38947 0.38947-0.38947 1.0837v4.9953h-2.1505v-8.4666h2.1505z"/>
<path d="m89.786 73.523q0.6096-0.32173 1.0668-0.44027 0.4572-0.13547 0.99906-0.13547 0.8636 0 1.5917 0.44027 0.72813 0.42333 1.0837 1.1345 0.1016 0.2032 0.1524 0.4064 0.06773 0.18627 0.1016 0.44026 0.0508 0.254 0.0508 0.6096 0.01693 0.3556 0.01693 0.89746v4.7075h-2.1505v-4.9784q0-0.7112-0.37253-1.1007-0.37253-0.4064-1.0668-0.4064-0.67733 0-1.0837 0.4064-0.38947 0.38947-0.38947 1.0837v4.9953h-2.1505v-8.4666h2.1505z"/>
<path d="m100.66 75.013q-0.7112 0-1.1515 0.64346-0.44026 0.64347-0.44026 1.6764 0 1.0499 0.42333 1.7103 0.44027 0.64347 1.1515 0.64347 0.67733 0 1.1007-0.6604 0.44027-0.6604 0.44027-1.6764 0-0.508-0.11854-0.93133-0.11853-0.42333-0.32173-0.72813-0.2032-0.32173-0.49106-0.49107-0.27094-0.18627-0.59267-0.18627zm-0.0169-2.0659q0.77893 0 1.4393 0.33867 0.67733 0.33867 1.1684 0.94826 0.50799 0.59267 0.79586 1.4055 0.28787 0.79586 0.28787 1.7103 0 0.93133-0.28787 1.7441-0.28787 0.79586-0.79586 1.3885-0.49107 0.59266-1.1853 0.93133-0.67733 0.33867-1.4563 0.33867-0.79586 0-1.4732-0.33867t-1.1853-0.93133q-0.49107-0.59267-0.77893-1.3885-0.28787-0.8128-0.28787-1.7272 0-0.94826 0.28787-1.7441 0.28787-0.8128 0.79586-1.4055 0.508-0.59267 1.1853-0.93133 0.69426-0.33867 1.4901-0.33867z"/>
<path d="m107.62 73.116 1.9981 5.4187 1.9981-5.4187h2.3029l-3.1327 8.4666h-2.3199l-3.1327-8.4666z"/>
<path d="m119.99 77.976q-0.6096-0.23707-0.93133-0.32173-0.32173-0.08467-0.6604-0.08467-0.64347 0-1.0499 0.3048-0.38947 0.28787-0.38947 0.77893 0 0.49106 0.44027 0.84666 0.44026 0.33867 1.0837 0.33867 0.77893 0 1.5071-0.52493zm0 3.6068v-0.38946q-0.99906 0.5588-2.1336 0.5588-0.62653 0-1.1684-0.22013-0.54187-0.22013-0.93133-0.6096-0.38947-0.38947-0.62654-0.9144-0.22013-0.54187-0.22013-1.1684 0-0.64347 0.23707-1.1853 0.23706-0.54187 0.6604-0.93133 0.44026-0.38947 1.0329-0.59266 0.6096-0.22013 1.3377-0.22013 0.4572 0 0.84666 0.06773 0.38947 0.0508 0.9652 0.23707v-0.5588q-0.0169-0.38946-0.4064-0.62653-0.37253-0.23707-0.99906-0.23707-0.4572 0-0.93134 0.11853-0.47413 0.11853-1.2361 0.44027l-0.79586-1.4901q0.77893-0.47413 1.524-0.69427 0.74506-0.22013 1.5917-0.22013 0.94826 0 1.6087 0.28787 0.6604 0.28787 1.1515 0.9144 0.18627 0.254 0.3048 0.47413 0.13547 0.22013 0.2032 0.49107 0.0847 0.254 0.1016 0.57573 0.0339 0.3048 0.0339 0.72813v5.1647z"/>
<path d="m127.46 73.116h2.0828v2.1505h-2.0828v2.9803q0 0.79586 0.254 1.0499 0.27093 0.27093 0.74506 0.27093 0.28787 0 0.508-0.1016 0.23707-0.11853 0.57573-0.42333l-0.3048 2.3029q-0.38946 0.22013-0.74506 0.3048-0.3556 0.1016-0.79587 0.1016-0.52493 0-0.96519-0.16933-0.44027-0.1524-0.762-0.42333-0.3048-0.28787-0.49107-0.67733-0.16933-0.4064-0.16933-0.89746v-4.318h-1.4732v-2.1505h1.4732v-2.032l2.1505-0.79586z"/>
<path d="m132.84 70.272q0.4572 0 0.77894 0.33867 0.33866 0.33867 0.33866 0.79586 0 0.47413-0.33866 0.8128-0.32174 0.32173-0.79587 0.32173t-0.8128-0.32173q-0.32173-0.33867-0.32173-0.82973 0-0.4572 0.32173-0.77893 0.33867-0.33867 0.82973-0.33867zm-1.1007 11.311v-8.4666h2.1505v8.4666z"/>
<path d="m139.98 75.013q-0.71119 0-1.1515 0.64346-0.44027 0.64347-0.44027 1.6764 0 1.0499 0.42334 1.7103 0.44026 0.64347 1.1515 0.64347 0.67733 0 1.1007-0.6604 0.44026-0.6604 0.44026-1.6764 0-0.508-0.11853-0.93133-0.11853-0.42333-0.32173-0.72813-0.2032-0.32173-0.49107-0.49107-0.27093-0.18627-0.59267-0.18627zm-0.0169-2.0659q0.77893 0 1.4393 0.33867 0.67733 0.33867 1.1684 0.94826 0.508 0.59267 0.79586 1.4055 0.28787 0.79586 0.28787 1.7103 0 0.93133-0.28787 1.7441-0.28786 0.79586-0.79586 1.3885-0.49107 0.59266-1.1853 0.93133-0.67733 0.33867-1.4563 0.33867-0.79586 0-1.4732-0.33867t-1.1853-0.93133q-0.49107-0.59267-0.77894-1.3885-0.28786-0.8128-0.28786-1.7272 0-0.94826 0.28786-1.7441 0.28787-0.8128 0.79587-1.4055 0.508-0.59267 1.1853-0.93133 0.69427-0.33867 1.4901-0.33867z"/>
<path d="m148.08 73.523q0.6096-0.32173 1.0668-0.44027 0.4572-0.13547 0.99907-0.13547 0.86359 0 1.5917 0.44027 0.72813 0.42333 1.0837 1.1345 0.1016 0.2032 0.1524 0.4064 0.0677 0.18627 0.1016 0.44026 0.0508 0.254 0.0508 0.6096 0.0169 0.3556 0.0169 0.89746v4.7075h-2.1505v-4.9784q0-0.7112-0.37253-1.1007-0.37253-0.4064-1.0668-0.4064-0.67733 0-1.0837 0.4064-0.38947 0.38947-0.38947 1.0837v4.9953h-2.1505v-8.4666h2.1505z"/>
</g>
</g>
</svg>
